<?xml version="1.0" encoding="utf-8"?>
<!DOCTYPE svg PUBLIC "-//W3C//DTD SVG 1.1//EN" "http://www.w3.org/Graphics/SVG/1.1/DTD/svg11.dtd">
<svg version="1.1" xmlns="http://www.w3.org/2000/svg" width="2000px" height="2000px" viewBox="0 0 2000 2000" preserveAspectRatio="xMidYMid meet">
 <g fill="#2e6e6e">
  <path d="M1318.5 1798.4 c-23.8 -2.8 -37 -6.1 -52.2 -13.4 -36.2 -17.2 -59.1 -47.3 -68.7 -90 -10.3 -46.2 -2.5 -95.3 20.7 -130 6.2 -9.3 23.1 -26.2 31.7 -31.9 24.2 -15.8 48.5 -22.5 81.5 -22.4 21.5 0 36.6 2.3 54.8 8.3 14.2 4.8 37.1 16.2 39.4 19.7 1.6 2.3 1.3 3 -8.3 22.5 -5.5 11 -10.8 20.7 -12 21.5 -2.5 1.6 -3.6 1.3 -13.6 -4.3 -10 -5.7 -22.6 -10.8 -34 -14 -12.7 -3.5 -33.1 -4.4 -44 -2 -34.4 7.7 -56.1 39.4 -58.4 85.6 -2.5 49.3 19.7 87.1 57.1 97.5 9.5 2.6 31.3 3.1 43.2 1 10.8 -1.9 27.6 -7.4 39.7 -12.9 4.3 -2 8.9 -3.6 10.2 -3.6 2.9 0 3.3 0.8 13.1 24 5.1 12 7.2 18.2 6.8 19.8 -1.2 4.7 -30.3 16.6 -50.8 20.7 -18.7 3.7 -42.9 5.4 -56.2 3.9z"/>
  <path d="M376.8 1793.9 c-1.4 -0.6 -3.3 -2.4 -4.1 -4.2 -3.1 -6.5 -98.7 -267.7 -98.7 -269.5 0 -1 0.9 -2.7 2.1 -3.8 2 -1.8 3.9 -1.9 28.3 -1.9 30 0 31.4 0.3 34.5 6.9 1 2.2 17.6 51.7 36.7 109.9 19.2 58.1 35.1 105.7 35.5 105.7 0.4 0 16.7 -48.5 36.3 -107.7 40.6 -122.6 36.8 -113.5 48.7 -114.8 3.5 -0.4 15.1 -0.5 25.7 -0.3 19 0.3 19.4 0.4 21.3 2.7 1 1.3 1.9 2.9 1.9 3.7 0 2.1 -97.8 267.4 -99.6 270.1 -0.8 1.3 -2.6 2.8 -4 3.3 -3.3 1.3 -61.1 1.1 -64.6 -0.1z"/>
  <path d="M583.6 1792.9 l-2.6 -2 0 -136.3 0 -136.3 2.1 -1.9 c2 -1.8 5.3 -1.9 100.2 -2.2 86.8 -0.2 98.3 -0.1 100.4 1.3 2.3 1.5 2.3 1.6 2.3 23 0 18.1 -0.2 21.6 -1.6 22.9 -1.4 1.4 -9.4 1.6 -73 1.6 l-71.4 0 0 30 0 30 50.5 0 c49.2 0 50.6 0.1 52.5 2 1.9 1.9 2 3.3 2 22.3 0 16 -0.3 20.7 -1.4 22.3 -1.4 1.8 -3.3 1.9 -52.5 2.2 l-51.1 0.3 0 36.9 0 37 71.4 0 c63.6 0 71.6 0.2 73 1.6 1.4 1.3 1.6 4.8 1.6 22.5 0 19.6 -0.1 21 -2 22.9 -2 2 -3.3 2 -99.9 2 -97.5 0 -97.8 0 -100.5 -2.1z"/>
  <path d="M902.5 1793.8 c-1.1 -0.6 -2.3 -1.6 -2.7 -2.2 -0.4 -0.6 -0.8 -52.3 -0.8 -114.8 l0 -113.8 -44.5 0 c-43.2 0 -44.6 -0.1 -46.5 -2 -1.9 -1.9 -2 -3.3 -2 -22 0 -20 0 -20.1 2.5 -22.6 l2.4 -2.4 118 0.2 c111.7 0.3 118.1 0.4 119.8 2.1 1.6 1.5 1.8 4.1 2.1 19.4 0.2 9.7 0.1 19.1 -0.3 20.9 -1.2 6.7 1 6.4 -48.1 6.4 l-44.4 0 -0.2 114.1 -0.3 114.1 -2.4 1.9 c-2.1 1.8 -4.2 1.9 -26.5 1.9 -16.1 -0.1 -24.8 -0.4 -26.1 -1.2z"/>
  <path d="M1091.2 1794 c-1.2 -0.5 -2.7 -2.1 -3.2 -3.6 -0.7 -1.7 -0.9 -49.7 -0.8 -137.5 0.3 -127.9 0.4 -134.9 2.1 -136.6 1.6 -1.6 4.1 -1.8 27.1 -1.8 23.6 0 25.5 0.1 27.5 1.9 l2.1 1.9 0 136.1 c0 74.9 -0.4 136.6 -0.8 137.2 -2 3 -5.5 3.4 -28.4 3.3 -12.8 0 -24.3 -0.4 -25.6 -0.9z"/>
  <path d="M1447.3 1793.9 c-3.6 -1 -5 -4.1 -3.7 -8.1 0.6 -2 59.4 -151.4 92 -233.8 6.9 -17.3 13.1 -32.5 13.9 -33.7 2.6 -3.8 7.7 -4.4 37.5 -4.1 l28 0.3 2.8 3 c2.2 2.3 15.2 34.3 54.6 134.3 28.5 72.3 52.2 132.8 52.7 134.4 2.2 7.7 -1.7 8.8 -29.5 8.8 -23.4 0 -28 -0.6 -31.4 -4.2 -1.1 -1.3 -7.4 -17 -14.2 -36 l-12.2 -33.8 -55.2 0 -55.1 0 -11.9 32.8 c-6.6 18 -12.6 33.7 -13.4 35 -3.3 5.1 -6 5.7 -29.7 5.9 -12.1 0.1 -23.5 -0.2 -25.2 -0.8z m172.7 -120.4 c0 -0.5 -33.1 -92.4 -36 -100 -0.9 -2.4 -1.3 -2.7 -2 -1.5 -0.9 1.6 -35.9 97.2 -36.8 100.3 -0.4 1.6 1.8 1.7 37.2 1.7 20.7 0 37.6 -0.2 37.6 -0.5z"/>
  <path d="M753.5 1382 c-0.3 -0.5 -1.4 -1 -2.4 -1 -2.7 0 -8.2 -3 -8.8 -4.9 -0.4 -0.9 -1.5 -2.7 -2.5 -4 -1 -1.3 -1.8 -3.6 -1.8 -5.2 0 -1.5 -0.4 -3.1 -1 -3.4 -0.5 -0.3 -1 -2.1 -1 -4 0 -1.9 -0.4 -3.7 -1 -4 -0.5 -0.3 -1 -1.7 -1 -3 0 -1.3 -0.4 -2.7 -1 -3 -0.5 -0.3 -1 -1.7 -1 -3 0 -1.3 -0.4 -2.7 -1 -3 -0.5 -0.3 -1 -1.3 -1 -2.1 0 -4.9 -14.1 -28.8 -23.8 -40.4 -10.2 -12 -30 -30.7 -45.7 -43 -3.1 -2.5 -7.7 -6.1 -10.1 -8 -2.4 -1.9 -6.2 -4.8 -8.4 -6.5 -2.3 -1.6 -6.3 -4.8 -9 -7 -13 -10.5 -15.2 -12.2 -18.7 -14.8 -9.2 -6.7 -33.5 -26 -43.6 -34.6 -2.6 -2.2 -5.8 -4.6 -7 -5.3 -1.2 -0.6 -2.8 -1.9 -3.5 -3 -0.7 -1 -1.8 -1.8 -2.4 -1.8 -0.6 0 -3 -1.7 -5.4 -3.7 -2.3 -2.1 -6.6 -5.6 -9.4 -7.8 -13.6 -10.5 -26.3 -21.1 -37.7 -31.5 -15.3 -13.9 -25.1 -23.7 -31.3 -31.3 -3 -3.7 -7 -8.5 -8.7 -10.6 -2.9 -3.4 -9.7 -13.3 -24.6 -35.6 -2.6 -3.8 -5.1 -7.5 -5.7 -8.2 -0.5 -0.7 -1 -1.6 -1 -2.1 0 -0.5 -0.7 -1.5 -1.5 -2.2 -0.9 -0.7 -2.5 -3.2 -3.5 -5.5 -1 -2.3 -2.6 -4.8 -3.5 -5.5 -0.8 -0.7 -1.5 -1.8 -1.5 -2.5 0 -0.6 -0.9 -2 -2 -3 -1.1 -1 -2 -2.4 -2 -3 0 -0.7 -0.7 -1.8 -1.5 -2.5 -0.9 -0.7 -2.3 -2.9 -3.2 -4.9 -1 -2 -2.9 -5.4 -4.3 -7.6 -4.1 -6.6 -4.9 -7.8 -6.7 -11.5 -0.9 -1.9 -2 -3.7 -2.3 -4 -0.3 -0.3 -1.1 -1.6 -1.8 -3 -1.3 -2.7 -3.4 -6.2 -4.2 -7 -1.2 -1.2 -3 -5.1 -3 -6.4 0 -0.8 -0.4 -1.6 -0.8 -1.8 -1.1 -0.4 -13.5 -26.2 -15.2 -31.5 -0.7 -2.4 -1.7 -4.3 -2.2 -4.3 -0.4 0 -0.8 -0.9 -0.8 -2 0 -1.1 -0.4 -2 -1 -2 -0.5 0 -1 -0.9 -1 -2 0 -1.1 -0.9 -3.5 -2 -5.5 -1.1 -2 -2 -4.2 -2 -5 0 -0.8 -0.9 -3 -2 -5 -1.1 -2 -2 -4.4 -2 -5.5 0 -1 -0.4 -2.2 -1 -2.5 -0.5 -0.3 -1 -1.5 -1 -2.6 0 -1 -0.4 -2.7 -0.9 -3.7 -0.5 -0.9 -1.4 -3.7 -2.1 -6.2 -0.6 -2.5 -1.8 -6.7 -2.6 -9.5 -0.7 -2.7 -2.3 -8.4 -3.4 -12.5 -1.2 -4.1 -2.5 -8.9 -3.1 -10.6 -0.5 -1.7 -0.9 -3.9 -0.9 -5 0 -1.1 -0.4 -2.4 -0.9 -2.9 -0.5 -0.6 -1.1 -2.8 -1.4 -5 -1 -6.9 -1.8 -10.9 -2.7 -13 -0.5 -1.1 -1.1 -3.8 -1.5 -6 -0.9 -6.6 -2.3 -14.7 -3.5 -20.5 -0.6 -3 -1.5 -8 -2 -11 -0.5 -3 -1.4 -8 -1.9 -11 -2.2 -12.7 -3.4 -20.3 -6.6 -41.5 -0.9 -6 -2.1 -13.5 -2.6 -16.5 -0.5 -3 -1.4 -8.6 -1.9 -12.5 -0.6 -3.8 -1.5 -9.7 -2 -13 -1 -6.1 -2.3 -14.7 -4 -26.5 -0.5 -3.6 -1.4 -9.4 -2 -13 -0.6 -3.6 -1.3 -9.4 -1.6 -13 -0.3 -3.6 -0.9 -7.4 -1.4 -8.5 -0.5 -1.1 -1.1 -4.5 -1.4 -7.5 -0.3 -3 -1 -8.9 -1.5 -13 -2 -14.4 -2.4 -28.8 -1.1 -36.6 0.7 -4.1 1.7 -7.4 2.1 -7.4 0.5 0 0.9 -0.6 0.9 -1.4 0 -1.8 10.8 -12.6 12.5 -12.6 0.7 0 1.5 -0.4 1.7 -0.8 0.2 -0.4 2.4 -1.8 5.1 -3 4.6 -2.1 11.9 -3.8 22 -4.9 l4.7 -0.5 0 -16.1 c0.1 -18.2 1.8 -34.1 6 -55.7 3.2 -16.3 4 -20.2 4.9 -22.5 2.1 -5.1 5.1 -15.5 5.1 -17.3 0 -1.2 0.4 -2.4 1 -2.7 0.5 -0.3 1 -1.7 1 -3 0 -1.3 0.5 -2.7 1 -3 0.6 -0.3 1 -1.4 1 -2.4 0 -0.9 0.9 -3.5 1.9 -5.7 1.1 -2.2 2.3 -5.2 2.6 -6.7 0.4 -1.5 1.1 -3 1.6 -3.3 0.5 -0.3 0.9 -1.3 0.9 -2.4 0 -1 1.4 -4.4 3 -7.5 1.7 -3.1 3 -6.3 3 -7 0 -1.5 6.2 -13.9 7.3 -14.3 0.4 -0.2 0.7 -1.2 0.7 -2.2 0 -1.1 0.6 -2.3 1.4 -2.7 0.7 -0.4 2.1 -2.6 3.1 -4.8 1 -2.2 2.8 -5.3 4 -7 1.2 -1.6 2.9 -4.6 3.8 -6.6 0.9 -2 2.3 -4.2 3.2 -4.9 0.8 -0.7 1.5 -1.8 1.5 -2.5 0 -0.6 0.9 -2 2 -3 1.1 -1 2 -2.2 2 -2.8 0 -0.5 1.2 -2.4 2.7 -4.2 1.6 -1.8 3.9 -5 5.3 -7 17 -24.8 47.4 -55.1 72.5 -72.2 3.9 -2.6 7.7 -5.2 8.7 -5.8 0.9 -0.5 3.7 -2.5 6.3 -4.2 2.5 -1.8 5 -3.3 5.4 -3.3 0.4 0 1.6 -0.9 2.6 -2 1 -1.1 2.4 -2 3.2 -2 0.7 0 1.3 -0.4 1.3 -1 0 -0.5 0.7 -1 1.5 -1 1.4 0 5.3 -1.8 6.5 -3 1.7 -1.7 25.9 -14 27.6 -14 1.6 0 6.4 -2.4 6.4 -3.2 0 -0.5 0.9 -0.8 1.9 -0.8 1.1 0 2.3 -0.4 2.6 -1 0.3 -0.5 1.7 -1 3 -1 1.3 0 2.7 -0.4 3 -1 0.3 -0.5 1.7 -1 3.1 -1 1.3 0 2.4 -0.4 2.4 -1 0 -0.5 0.9 -1 1.9 -1 1.1 0 2.3 -0.4 2.6 -1 0.3 -0.5 1.5 -1 2.7 -1 1.1 0 5 -0.9 8.7 -2.1 10.3 -3.2 12.2 -3.7 17.6 -4.5 2.8 -0.3 5.5 -1 6 -1.4 0.6 -0.4 3.5 -1.1 6.5 -1.4 3 -0.4 8.2 -1.1 11.5 -1.6 19.6 -3 27 -3.4 58.5 -3.4 31.5 0.1 47.5 0.9 61.5 3.4 3.3 0.6 7.8 1.3 10 1.7 2.2 0.3 4.5 0.9 5 1.3 0.6 0.4 3.3 1.1 6 1.4 2.8 0.4 6.4 1.1 8 1.6 1.7 0.5 6.4 1.8 10.5 3 4.1 1.2 8.9 2.6 10.6 3.1 1.7 0.5 3.8 0.9 4.7 0.9 0.9 0 1.7 0.5 1.7 1 0 0.6 0.9 1 2 1 1.1 0 2 0.5 2 1 0 0.6 1.1 1 2.4 1 1.4 0 2.8 0.5 3.1 1 0.3 0.6 1.5 1 2.6 1 1 0 1.9 0.5 1.9 1 0 0.6 0.9 1 2 1 1.1 0 3.5 0.9 5.5 2 2 1.1 4.1 2 4.8 2 0.6 0 4.6 1.6 8.7 3.6 4.1 2 8.6 4.1 10 4.7 1.4 0.7 2.7 1.4 3 1.7 0.9 0.9 8.4 5.1 11.3 6.3 1.5 0.6 2.7 1.5 2.7 1.9 0 0.4 0.4 0.8 0.9 0.8 0.6 0 3 1.4 5.4 3 2.5 1.7 4.9 3 5.4 3 0.6 0 1.8 0.9 2.8 2 1 1.1 2.3 2 2.9 2.1 0.6 0 3.1 1.6 5.6 3.5 2.5 1.8 7.4 5.4 11 7.9 13.9 9.7 18.8 13.8 37.5 30.6 7.7 7 16 14.9 18.5 17.6 14.2 15.7 31.7 33.5 34 34.6 2.2 1.2 3.2 1.1 6.7 -0.4 2.2 -0.9 5.4 -3.4 6.9 -5.5 8.7 -11.3 46.4 -50 58.6 -60 10.9 -9.1 13.5 -11.1 19.7 -15.6 11.9 -8.5 21.3 -14.8 22.1 -14.8 0.4 0 1.3 -0.7 2 -1.5 0.7 -0.9 3.2 -2.5 5.5 -3.5 2.3 -1 4.8 -2.6 5.5 -3.5 0.7 -0.8 1.9 -1.5 2.6 -1.5 0.8 0 1.4 -0.4 1.4 -1 0 -0.5 0.7 -1 1.5 -1 1.6 0 11.8 -5.9 12.3 -7.2 0.2 -0.4 1 -0.8 1.8 -0.8 0.9 0 3.5 -1.1 6 -2.5 2.5 -1.4 5.1 -2.5 5.8 -2.5 0.7 0 4.8 -1.8 9.1 -4 4.3 -2.2 8.6 -4 9.6 -4 1 0 2.1 -0.4 2.4 -1 0.3 -0.5 1.7 -1 3.1 -1 1.3 0 2.4 -0.4 2.4 -1 0 -0.5 0.9 -1 1.9 -1 1.1 0 2.3 -0.4 2.6 -1 0.3 -0.5 1.6 -1 2.9 -1 1.2 0 2.6 -0.4 3.1 -0.8 0.6 -0.5 3 -1.4 5.5 -2.1 2.5 -0.7 7.4 -2.1 11 -3.2 3.6 -1.1 9.2 -2.4 12.5 -3 3.3 -0.5 8.3 -1.4 11 -2 22.8 -4.5 33.1 -5.3 70 -5.2 31.5 0 44.2 0.7 58.5 3.2 12.7 2.3 28 5.5 33.5 7.1 2.2 0.6 5.1 1.4 6.5 1.7 1.4 0.3 3 0.9 3.5 1.3 0.6 0.3 3 1.2 5.5 1.9 2.5 0.7 5.3 1.7 6.2 2.2 1 0.5 2.7 0.9 3.8 0.9 1.1 0 2 0.5 2 1 0 0.6 0.9 1 2 1 1.1 0 2 0.5 2 1 0 0.6 1.4 1 3 1 1.7 0 3 0.5 3 1 0 0.6 0.9 1 2 1 1.1 0 2 0.5 2 1 0 0.6 0.9 1 1.9 1 1.1 0 2.1 0.3 2.3 0.8 0.3 0.7 7.4 4.3 19.8 10.1 3.6 1.6 8.3 4.1 10.3 5.5 2.1 1.5 4.2 2.6 4.7 2.6 0.6 0 1 0.4 1 0.8 0 0.4 1.2 1.3 2.8 2 3.3 1.5 6.3 3.3 8.2 5 1.3 1.1 6.3 4.5 13.5 9.2 4 2.6 15.8 11.6 21.9 16.6 11.8 9.9 48.6 47.7 48.6 50 0 0.4 0.9 1.7 1.9 2.8 2.1 2.3 4.8 5.9 10.8 14.6 2.1 3 4.3 6.1 5 6.8 0.7 0.7 1.3 1.7 1.3 2.2 0 0.5 0.7 1.5 1.4 2.3 2 1.9 6.9 11 16.3 29.7 4.2 8.5 8 15.6 8.5 15.8 0.4 0.2 0.8 1.7 0.8 3.3 0 1.6 0.5 2.9 1 2.9 0.6 0 1 0.9 1 2 0 1.1 0.5 2 1 2 0.6 0 1 1 1 2.3 0 1.3 0.4 2.7 0.9 3.2 0.9 0.9 8.8 24.8 11.3 34 0.5 2.2 1.4 4.9 1.8 6 0.5 1.1 1.1 3.4 1.5 5 0.3 1.7 1 4.8 1.6 7 1.7 6.6 2.8 12.8 5.9 31.8 6 37 5.2 93.8 -2 137.7 -0.6 3.6 -1.3 8.3 -1.6 10.5 -0.3 2.2 -1 4.4 -1.5 5 -0.5 0.5 -0.9 1.8 -0.9 2.9 0 1.1 -0.4 3.3 -0.9 5 -1.4 4.4 -4.1 15.1 -6.6 25.6 -0.8 3.6 -2.4 9 -3.5 12 -1.1 3 -2 6.3 -2 7.3 0 1 -0.9 3.7 -2 5.9 -1.1 2.3 -2 5 -2 5.9 0 1 -0.4 2.1 -1 2.4 -0.5 0.3 -1 1.7 -1 3 0 1.3 -0.4 2.7 -1 3 -0.5 0.3 -1 1.7 -1 3 0 1.3 -0.4 2.7 -1 3 -0.5 0.3 -1 1.7 -1 3.1 0 1.3 -0.3 2.4 -0.7 2.4 -0.9 0 -3.3 4.8 -3.3 6.5 0 0.6 -1.3 3.7 -3 7 -1.6 3.3 -3 6.6 -3 7.3 0 0.7 -0.9 3 -2 5.2 -1.1 2.1 -2.7 6.1 -3.6 8.7 -0.9 2.6 -2.5 6 -3.5 7.5 -1.1 1.4 -1.9 3.3 -1.9 4.2 0 0.9 -0.3 1.6 -0.7 1.6 -0.9 0 -3.3 4.8 -3.3 6.6 0 0.7 -0.4 1.4 -0.8 1.6 -0.4 0.2 -2.5 3.7 -4.6 7.8 -2.1 4.1 -5.8 10.9 -8.1 15 -2.4 4.1 -4.8 8.4 -5.3 9.5 -0.6 1.1 -2.2 3.7 -3.6 5.8 -1.4 2.1 -2.6 4 -2.6 4.3 0 0.4 -1.3 2.6 -3 5.1 -1.6 2.4 -3 4.8 -3 5.2 0 0.5 -0.6 1.1 -1.2 1.4 -0.7 0.3 -2.2 2.2 -3.3 4.3 -1.1 2.2 -3.4 6 -5.2 8.6 -1.8 2.6 -3.3 5.2 -3.3 5.6 0 0.5 -0.9 1.7 -2 2.7 -1.1 1 -2 2.3 -2 3 0 0.6 -1.3 2.4 -3 4 -1.6 1.6 -3 3.4 -3 4 0 0.7 -0.9 2 -2 3 -1.1 1 -2 2.4 -2 3 0 0.7 -0.7 1.9 -1.6 2.6 -0.9 0.7 -3.6 4.3 -6 7.9 -4.6 6.8 -6.2 8.9 -15.6 20.7 -3.2 3.9 -5.8 7.6 -5.8 8.2 0 0.5 -0.8 1.6 -1.7 2.3 -1 0.7 -2.9 2.9 -4.3 4.9 -1.4 2 -5.6 7.4 -9.5 11.9 -8 9.3 -13.4 15.8 -22 26 -12.5 15 -37.1 42.1 -58.5 64.5 -9.1 9.5 -21 22.2 -26.5 28.1 -5.5 5.8 -13 13.2 -16.7 16.2 -3.8 3.1 -6.8 6.2 -6.8 6.9 0 0.7 -1 1.8 -2.2 2.4 -1.3 0.7 -8.4 7.1 -15.9 14.3 -7.5 7.2 -18.9 17.8 -25.3 23.6 -6.5 5.8 -15.5 13.9 -20 18 -4.6 4.1 -12.3 10.9 -17 15 -4.8 4.1 -11.3 9.8 -14.5 12.5 -3.2 2.8 -9.1 7.7 -13.1 11 -4.1 3.3 -8.5 7.2 -9.9 8.6 -1.4 1.4 -4.7 4.1 -7.3 5.9 -2.7 1.8 -4.8 3.7 -4.8 4 0 0.4 -1.7 1.9 -3.7 3.2 -2.1 1.4 -5.7 4.3 -7.9 6.4 -2.3 2.2 -6.5 5.7 -9.4 7.9 -2.8 2.2 -7.1 5.6 -9.5 7.5 -4.1 3.3 -9 7.2 -18.2 14.3 -5.3 4.1 -14.3 11.2 -19.9 15.7 -2.4 1.9 -6.1 4.9 -8.4 6.5 -6.7 4.9 -12.3 9.2 -15.6 11.9 -1.8 1.5 -3.5 2.6 -3.9 2.6 -0.4 0 -2.2 1.2 -4.1 2.8 -1.8 1.5 -5.1 4.1 -7.3 5.7 -2.3 1.7 -5.1 3.8 -6.2 4.8 -1.2 0.9 -2.6 1.7 -3 1.7 -0.5 0 -2.1 1.2 -3.8 2.8 -1.6 1.5 -6.1 5 -10.1 7.7 -3.9 2.8 -8.6 6.2 -10.5 7.8 -1.8 1.5 -3.7 2.7 -4.2 2.7 -0.6 0 -1.8 0.9 -2.8 2 -1 1.1 -2.2 2 -2.6 2 -0.4 0 -2.9 1.5 -5.4 3.3 -2.6 1.7 -5.4 3.7 -6.3 4.2 -1 0.6 -6.4 4.2 -12.2 8 -5.8 3.8 -11.2 7.4 -12.2 8 -0.9 0.5 -3.7 2.5 -6.3 4.3 -2.5 1.7 -5 3.2 -5.6 3.2 -0.5 0 -0.9 0.4 -0.9 0.8 0 0.4 -1.2 1.3 -2.7 1.9 -2.7 1.2 -6.3 3.3 -7.3 4.3 -1.2 1.2 -16.1 7.7 -19.5 8.5 -9.6 2.2 -14.2 1.8 -23 -2.1 -6.6 -2.9 -13.3 -12.8 -15.9 -23.6 -3.1 -13.2 -3.9 -23 -5.6 -72.3 -1.1 -30.2 -2.3 -51.1 -3.9 -65.5 -0.6 -4.7 -1.3 -11.4 -1.6 -15 -0.3 -3.6 -1 -7.4 -1.5 -8.5 -0.5 -1.1 -1.1 -4 -1.4 -6.5 -0.5 -5 -1.9 -12.2 -3.5 -18.7 -0.6 -2.4 -1.5 -6.1 -2.1 -8.3 -0.5 -2.2 -1.4 -5.7 -1.9 -7.7 -1.3 -5.9 -9.1 -28.7 -10.2 -29.7 -0.5 -0.6 -0.9 -1.7 -0.9 -2.6 0 -2.4 -15 -31.6 -19.3 -37.7 -2 -2.9 -3.7 -5.7 -3.7 -6.1 0 -0.5 -0.9 -1.7 -2 -2.7 -1.1 -1 -2 -2.3 -2 -3 0 -0.7 -0.9 -2 -2 -3 -1.1 -1 -2 -2.2 -2 -2.8 0 -0.9 -0.7 -1.8 -11.5 -14.9 -12.5 -15.1 -33.1 -35.1 -46.3 -45.1 -2 -1.5 -5.7 -4.3 -8.2 -6.2 -2.5 -1.9 -9.7 -6.9 -16 -11.2 -6.3 -4.2 -11.7 -8 -12 -8.3 -1.2 -1.3 -7 -5 -7.8 -5 -0.5 0 -1.5 -0.7 -2.2 -1.5 -0.7 -0.9 -3.3 -2.5 -5.6 -3.5 -2.4 -1.1 -4.6 -2.4 -4.9 -3 -0.3 -0.6 -2.6 -1.9 -5 -3 -2.4 -1.1 -4.7 -2.4 -5 -3 -0.3 -0.5 -2.3 -1.7 -4.3 -2.7 -2 -0.9 -5.8 -3.2 -8.4 -5 -2.6 -1.8 -5.1 -3.3 -5.4 -3.3 -0.7 0 -23.6 -15.1 -24.4 -16.1 -0.3 -0.3 -1.6 -1.2 -3 -1.9 -1.4 -0.7 -3.4 -2.2 -4.5 -3.2 -1.1 -1.1 -4 -3.4 -6.5 -5.3 -2.5 -1.9 -6.5 -4.9 -8.8 -6.7 -4.4 -3.3 -18.8 -16.3 -29.9 -26.9 -3.2 -3.1 -11.2 -11.6 -17.8 -18.8 -6.6 -7.3 -14.7 -16.3 -18.1 -19.9 -3.3 -3.7 -8 -9.1 -10.4 -12.1 -7 -8.5 -24.8 -24.1 -27.5 -24.1 -1.3 0 -2.7 -0.4 -3 -1 -0.3 -0.5 -3.2 -1 -6.4 -1 -6.1 0 -8.2 1.4 -12.4 8.2 -1.9 3.1 -2.4 16.2 -0.7 17.3 0.6 0.3 1 2.1 1 4 0 1.9 0.4 3.7 1 4 0.5 0.3 1 1.9 1 3.5 0 1.6 0.9 4.5 2 6.5 1.1 2 2 4.1 2 4.8 0 1.7 17.6 36.6 19.5 38.7 0.8 0.9 1.5 2.1 1.5 2.7 0 0.5 0.9 1.8 2 2.8 1.1 1 2 2.4 2 3.2 0 0.7 0.7 1.6 1.5 1.9 0.8 0.3 1.7 1.6 2.1 2.7 0.4 1.2 2.6 4.7 5 7.7 2.4 3 5.6 7.2 7.1 9.3 8 10.7 13.7 17.1 33.8 37.7 26.1 26.7 48.5 51.5 48.5 53.7 0 0.5 1.4 2.2 3 3.8 1.7 1.6 3 3.4 3 4.1 0 0.6 0.7 1.7 1.4 2.4 0.8 0.6 3.8 5.9 6.5 11.7 5.5 11.4 6.5 17.4 3.6 22.9 -1.7 3.4 -6.9 6.3 -11.3 6.4 -3.7 0 -11.2 -2.1 -11.2 -3.2 0 -0.5 -0.9 -0.8 -2 -0.8 -1.1 0 -2 -0.4 -2 -1 0 -0.5 -0.9 -1 -2 -1 -1.1 0 -2 -0.3 -2 -0.8 0 -0.4 -1.4 -1.4 -3.2 -2.1 -1.8 -0.8 -5.1 -2.7 -7.4 -4.3 -2.3 -1.5 -4.5 -2.8 -4.8 -2.8 -0.3 0 -2.8 -1.5 -5.4 -3.2 -2.6 -1.8 -5.5 -3.7 -6.4 -4.3 -0.9 -0.5 -3.7 -2.5 -6.2 -4.2 -2.6 -1.8 -4.9 -3.3 -5.2 -3.3 -0.4 0 -2.4 -1.3 -10.5 -6.5 -0.8 -0.5 -3.8 -2.4 -6.5 -4.2 -2.7 -1.7 -5.7 -3.8 -6.6 -4.7 -1 -0.9 -2.2 -1.6 -2.7 -1.6 -0.4 0 -1.9 -1 -3.2 -2.3 -2.1 -2 -10.2 -7.8 -15.8 -11.2 -6.3 -4 -9.8 -6.5 -11 -7.9 -0.7 -0.9 -1.9 -1.6 -2.6 -1.6 -0.6 0 -2 -0.9 -3 -2 -1 -1.1 -2.3 -2 -3 -2 -0.6 0 -2.4 -1.3 -4 -3 -1.6 -1.6 -3.3 -3 -3.8 -3 -0.5 0 -2.6 -1.5 -4.7 -3.2 -2.1 -1.8 -5.7 -4.6 -8 -6.3 -2.4 -1.6 -6.4 -4.7 -8.9 -6.7 -2.5 -2.1 -6.7 -5.4 -9.4 -7.5 -25.4 -20.2 -53.1 -46.7 -68.3 -65.5 -10.9 -13.4 -12.4 -15.5 -12.4 -16.6 0 -0.5 -0.7 -1.5 -1.5 -2.2 -0.9 -0.7 -2.3 -2.9 -3.2 -4.9 -0.9 -2 -2.3 -4.4 -3.1 -5.3 -1.9 -2.3 -8.2 -14.9 -8.2 -16.5 0 -0.7 -0.8 -2.7 -1.8 -4.5 -1 -1.8 -2.6 -5.5 -3.6 -8.3 -1 -2.7 -2.3 -5.4 -2.7 -6 -0.5 -0.5 -0.9 -1.7 -0.9 -2.7 0 -0.9 -0.9 -3.3 -2 -5.3 -1.1 -2 -2 -4.4 -2 -5.5 0 -1 -0.5 -2.2 -1 -2.5 -0.5 -0.3 -1 -1.7 -1 -3 0 -1.3 -0.5 -2.7 -1 -3 -0.6 -0.3 -1 -1.7 -1 -3 0 -1.3 -0.5 -2.7 -1 -3 -0.5 -0.3 -1 -1.7 -1 -3 0 -1.3 -0.5 -2.7 -1 -3 -0.6 -0.3 -1 -1.6 -1 -2.9 0 -1.2 -0.3 -2.6 -0.7 -3 -1 -1 -3.3 -7.8 -3.3 -9.9 0 -0.9 -0.4 -2.5 -0.9 -3.5 -0.5 -0.9 -1.7 -4.4 -2.6 -7.7 -0.9 -3.3 -2.5 -9.1 -3.6 -13 -1.1 -3.8 -2.5 -8.8 -3.1 -11 -0.6 -2.2 -1.4 -4.9 -1.8 -6 -0.5 -1.1 -1.1 -3.3 -1.5 -5 -0.3 -1.6 -1.1 -4.8 -1.6 -7 -0.6 -2.2 -1.3 -5.5 -1.6 -7.3 -0.3 -1.8 -0.9 -3.5 -1.4 -3.8 -0.5 -0.3 -0.9 -1.6 -0.9 -2.9 0 -1.3 -0.5 -2.7 -1 -3 -0.6 -0.3 -1 -2.1 -1 -4 0 -1.9 -0.5 -3.7 -1 -4 -0.6 -0.3 -1 -2.1 -1 -4 0 -1.9 -0.5 -3.7 -1 -4 -0.6 -0.3 -1 -2.1 -1 -3.9 0 -1.7 -0.4 -3.6 -0.9 -4.2 -0.5 -0.5 -1.6 -3.6 -2.4 -6.9 -5.1 -19.4 -9.4 -33.6 -10.6 -34.5 -1.1 -0.9 -3.1 -5 -3.1 -6.4 0 -0.8 -0.3 -1.6 -0.7 -1.8 -0.5 -0.1 -1.9 -2.5 -3.3 -5.3 -3 -6 -18.1 -21.5 -20.9 -21.5 -0.6 0 -2.6 -0.9 -4.6 -2 -2 -1.1 -5.2 -2 -7.2 -2 l-3.5 0 0.5 5.8 c1.3 12.1 5.3 41.7 7.7 56.2 0.6 3.6 1.3 8.8 1.6 11.5 0.3 2.8 1 5.4 1.5 5.9 0.5 0.6 0.9 3.7 0.9 7.1 0 3.4 0.4 6.5 0.9 7.1 0.5 0.5 1.2 3.2 1.5 5.9 0.3 2.8 1 7.9 1.6 11.5 0.6 3.6 1.5 9.4 2 13 0.5 3.6 1.3 9.2 1.9 12.5 0.5 3.3 1.4 8.7 2 12 0.5 3.3 1.7 9.8 2.6 14.5 0.8 4.7 2 11.4 2.6 15 0.5 3.6 1.4 9.2 1.9 12.5 0.6 3.3 1.5 8.3 2 11 1.7 8 2.9 13.6 4 19.5 0.6 3 1.5 7.8 2.1 10.5 0.5 2.8 1.2 6.5 1.6 8.3 0.3 1.8 0.9 3.5 1.4 3.8 0.5 0.3 0.9 2.5 0.9 4.9 0 2.4 0.5 4.7 1 5 0.6 0.3 1 1.7 1 3 0 1.3 0.5 2.7 1 3 0.5 0.3 1 1.6 1 2.7 0 2.4 0.2 3.2 5.5 19.8 5 15.4 8 23.8 8.8 24.6 0.4 0.4 0.7 1.6 0.7 2.6 0 1 0.3 1.8 0.8 1.8 0.8 0 3.2 4.8 3.2 6.4 0 1.2 18 37.9 19 38.6 0.4 0.3 1.4 2 2.3 3.8 4.1 7.8 4.8 9.1 6.2 10.2 0.8 0.7 1.5 2.1 1.5 3.1 0 1.1 0.5 1.9 1 1.9 0.6 0 1 0.4 1 0.9 0 0.6 1.2 2.9 2.8 5.3 4.1 6.5 5 7.9 7.9 13.2 4.4 7.8 4.9 8.5 6.6 10.4 1 1 1.7 2.2 1.7 2.5 0 0.4 1.2 2.6 2.7 5 1.5 2.3 3.2 4.9 3.8 5.9 0.5 0.9 2.5 3.7 4.3 6.3 1.7 2.5 3.2 5 3.2 5.4 0 0.4 0.9 1.6 2 2.6 1.1 1 2 2.4 2 3.2 0 0.7 0.5 1.3 1.1 1.3 0.5 0 1.5 1.3 2 2.9 0.6 1.6 1.7 3.2 2.5 3.5 0.8 0.3 1.4 1.1 1.4 1.7 0 0.6 1.2 2.6 2.8 4.5 1.5 1.8 4.7 5.9 7.2 9.1 6.1 7.7 32.9 34.5 41.4 41.3 3.7 3 9.2 7.5 12 10 2.9 2.5 8.3 7 12.1 10 3.8 3 7.8 6.4 8.9 7.5 1.1 1.1 4.1 3.6 6.6 5.5 2.6 1.9 9.1 7.1 14.5 11.5 12.2 10 17 13.8 21.5 17 3.5 2.5 6.8 5.1 17.5 13.5 3.2 2.5 6.5 5 7.4 5.5 0.9 0.6 3.3 2.4 5.3 4 2 1.7 5.6 4.5 8 6.3 9.3 7.1 15.9 12.3 30.7 23.9 22.1 17.5 47.4 44.1 59.7 62.8 5 7.7 16.4 30.4 16.4 32.7 0 1 0.5 1.8 1 1.8 0.6 0 1 1.4 1 3 0 1.7 0.5 3 1 3 0.6 0 1 1.3 1 2.8 0 1.5 0.4 3.2 0.9 3.8 0.9 0.9 1.6 5 2.7 15.9 0.4 3.3 1.1 6.5 1.6 7.2 0.6 0.7 0.5 1.4 -0.2 1.8 -0.5 0.3 -1 2.1 -1 4 0 3.7 -3.2 12 -5.8 14.9 -2.5 2.8 -8.9 6.6 -11.1 6.6 -1.1 0 -2.3 0.5 -2.6 1 -0.3 0.6 -1.5 1 -2.5 1 -1 0 -2.2 -0.4 -2.5 -1z m273.5 -82 c0 -0.5 0.7 -1 1.5 -1 0.8 0 3.9 -2 7 -4.5 3.1 -2.5 6.7 -5.1 8 -5.7 1.4 -0.6 2.5 -1.5 2.5 -1.9 0 -0.5 3 -2.9 6.8 -5.3 3.7 -2.5 8.5 -5.9 10.7 -7.6 2.2 -1.6 4.9 -3.4 6 -3.9 1.1 -0.5 3.1 -2.1 4.4 -3.5 1.4 -1.4 2.9 -2.6 3.4 -2.6 0.5 0 2.4 -1.2 4.3 -2.7 1.8 -1.6 5.1 -4.1 7.4 -5.8 2.2 -1.6 5.8 -4.3 8 -6 2.2 -1.6 5.7 -4.3 7.7 -5.8 2.1 -1.6 6.7 -5.1 10.3 -7.8 3.6 -2.7 8 -5.9 9.8 -7 1.7 -1.2 3.2 -2.5 3.2 -3 0 -0.5 1 -1.3 2.3 -1.8 1.3 -0.5 3.4 -1.8 4.8 -3 1.3 -1.1 4.5 -3.7 7 -5.8 4.2 -3.4 7.1 -5.7 19.9 -15.8 2.1 -1.6 5.9 -4.6 8.5 -6.5 2.6 -1.9 7.5 -5.9 10.8 -8.7 6 -5.1 10.4 -8.8 23.2 -19.3 9 -7.5 18.8 -15.8 26.4 -22.5 3.8 -3.3 10.5 -9.1 15.1 -13 28.9 -24.7 90.8 -84.3 138.1 -133 24.2 -24.9 46.4 -49.7 60.9 -68 7.2 -9 13.4 -16.5 17.8 -21.4 2.3 -2.6 4.2 -5.3 4.2 -5.8 0 -0.6 0.7 -1.7 1.6 -2.4 0.9 -0.8 2.7 -3 4 -4.9 1.3 -1.9 4 -5.5 5.9 -8 1.9 -2.5 4.6 -6.1 6 -8 1.4 -1.9 4.5 -6.2 7 -9.5 5.6 -7.7 13.7 -19.1 15.1 -21.6 0.6 -1 1.8 -2.7 2.7 -3.7 1 -1 1.7 -2.3 1.7 -2.9 0 -0.5 0.9 -1.8 2 -2.8 1.1 -1 2 -2.2 2 -2.6 0 -0.4 1.4 -2.8 3 -5.2 1.7 -2.5 3 -4.7 3 -5.1 0 -0.3 1.2 -2.2 2.6 -4.3 1.4 -2.1 3 -4.7 3.5 -5.8 0.6 -1.1 2.5 -4.5 4.4 -7.5 1.9 -3 4.2 -7.2 5.2 -9.2 1 -2.1 2.1 -3.8 2.5 -3.8 0.5 0 0.8 -0.9 0.8 -2 0 -1.1 0.5 -2 1 -2 0.6 0 1 -0.7 1 -1.5 0 -1.4 1.8 -5.3 3 -6.5 0.9 -0.9 3 -4.4 4.1 -7 0.6 -1.4 3.1 -6.7 5.5 -11.8 2.4 -5.1 4.4 -9.7 4.4 -10.3 0 -1.4 4.3 -10.4 5.2 -10.7 0.4 -0.2 0.8 -1.7 0.8 -3.3 0 -1.6 0.5 -2.9 1 -2.9 0.6 0 1 -0.7 1 -1.5 0 -0.8 0.5 -2.5 1.2 -3.8 2.4 -4.8 2.8 -5.7 2.8 -7.6 0 -1.1 0.5 -2.3 1 -2.6 0.6 -0.3 1 -1.4 1 -2.5 0 -1 0.8 -3.5 1.9 -5.7 2.4 -5 6.3 -17.6 10.2 -33.5 2.1 -8.5 3.1 -12.5 4 -15.4 0.5 -1.7 0.9 -4 0.9 -5.2 0 -1.1 0.5 -2.4 1 -2.7 0.6 -0.3 1 -2.6 1 -5 0 -2.4 0.5 -4.7 1 -5 0.6 -0.3 1 -2.5 1 -4.9 0 -2.3 0.4 -4.6 0.9 -5.2 0.5 -0.5 1.2 -3.6 1.4 -6.9 0.3 -3.3 1.1 -11.4 1.9 -18 2.5 -23.2 1.4 -72.8 -2.2 -94.2 -0.5 -3.5 -1.4 -8.9 -2 -12 -0.5 -3.2 -1.2 -7.6 -1.5 -9.8 -0.4 -2.2 -1 -4.9 -1.5 -6 -0.5 -1.1 -1.1 -3.5 -1.4 -5.2 -1.3 -7.6 -1.9 -9.9 -2.6 -10.8 -0.4 -0.5 -1.5 -4 -2.4 -7.7 -2.2 -8.9 -5.6 -19.1 -6.7 -20.2 -0.5 -0.6 -0.9 -1.6 -0.9 -2.4 0 -1.7 -6.2 -14.6 -7.2 -15 -0.4 -0.2 -0.8 -1.4 -0.8 -2.7 0 -1.3 -0.4 -2.7 -1 -3 -0.5 -0.3 -1 -1.5 -1 -2.6 0 -1 -0.4 -1.9 -1 -1.9 -0.5 0 -1 -0.4 -1 -1 0 -0.5 -1.2 -2.6 -2.6 -4.7 -1.4 -2.1 -3.4 -5.6 -4.5 -7.8 -3.3 -6.7 -7.3 -13.2 -9.6 -15.7 -1.3 -1.4 -2.3 -2.8 -2.4 -3.4 0 -0.5 -2.2 -3.6 -5 -6.9 -2.7 -3.3 -6 -7.6 -7.3 -9.5 -7.1 -10.5 -47.5 -49 -51.4 -49 -0.5 0 -1.6 -0.7 -2.3 -1.6 -1.6 -1.9 -6.4 -5.2 -16.4 -11.4 -2.3 -1.4 -5 -3 -6 -3.7 -1.1 -0.7 -4.5 -2.5 -7.5 -4 -3 -1.5 -5.6 -3.1 -5.8 -3.5 -0.2 -0.4 -1.2 -0.8 -2.3 -0.8 -1 0 -1.9 -0.4 -1.9 -1 0 -0.5 -0.9 -1 -2 -1 -1.1 0 -2 -0.4 -2 -1 0 -0.5 -0.9 -1 -2 -1 -1.1 0 -2 -0.4 -2 -1 0 -0.5 -0.9 -1 -2 -1 -1.1 0 -2 -0.4 -2 -1 0 -0.5 -0.9 -1 -2 -1 -1.1 0 -2 -0.3 -2 -0.7 0 -0.9 -4.9 -3.3 -6.7 -3.3 -0.7 0 -2.8 -0.9 -4.8 -2 -2 -1.1 -4.4 -2 -5.5 -2 -1 0 -2.2 -0.4 -2.5 -1 -0.3 -0.5 -1.5 -1 -2.5 -1 -1.9 0 -9.6 -2.3 -13.5 -4 -2 -0.9 -5.5 -1.7 -11 -2.6 -1.6 -0.3 -3.9 -0.9 -5 -1.4 -2.1 -0.9 -6.6 -1.7 -14.5 -2.6 -2.5 -0.3 -5.4 -0.9 -6.5 -1.4 -5.6 -2.4 -50.1 -3.2 -70 -1.2 -6.6 0.7 -14.5 1.5 -17.5 1.8 -3 0.3 -5.9 1 -6.5 1.5 -0.5 0.5 -2.8 0.9 -5.1 0.9 -2.4 0 -4.6 0.5 -4.9 1 -0.3 0.6 -2 1 -3.7 1 -1.8 0 -4.5 0.4 -6.2 0.9 -1.7 0.5 -5.1 1.5 -7.6 2.2 -2.5 0.7 -4.9 1.6 -5.5 2.1 -0.5 0.4 -1.7 0.8 -2.6 0.8 -2.5 0 -11.9 3.1 -15.7 5.2 -1.8 1 -3.8 1.8 -4.5 1.8 -0.6 0 -9.9 4.4 -20.5 9.8 -10.6 5.3 -20.1 10.1 -21.2 10.7 -1.1 0.5 -2 1.3 -2 1.7 0 0.5 -0.6 0.8 -1.3 0.8 -0.8 0 -2.2 0.9 -3.2 2 -1 1.1 -2.4 2 -3.1 2 -0.7 0 -1.9 0.6 -2.6 1.3 -1.1 1.1 -6.7 5 -15.3 10.7 -24 16 -65.6 57.1 -86 85 -1.6 2.3 -4.2 5.6 -5.7 7.4 -1.6 1.9 -2.8 3.6 -2.8 4 0 0.3 -3.4 5 -7.5 10.4 -7.1 9.3 -14.1 16.2 -16.4 16.2 -0.6 0 -1.1 0.5 -1.1 1 0 0.6 -2.2 1 -4.8 1 -3.6 0 -5.4 -0.5 -6.7 -2 -1 -1.1 -2.4 -2 -3.1 -2 -0.7 0 -2.6 -1.6 -4.1 -3.6 -1.5 -2 -3.5 -4.4 -4.3 -5.3 -0.8 -0.9 -4.1 -5.4 -7.3 -10.1 -8.5 -12.5 -15.3 -21.2 -30.7 -39.6 -10.6 -12.6 -44.3 -45.4 -46.6 -45.4 -0.6 0 -2.8 -1.8 -4.9 -4 -2.1 -2.2 -4.4 -4 -5 -4 -0.6 0 -2.6 -1.6 -4.5 -3.5 -1.9 -1.9 -3.8 -3.5 -4.3 -3.5 -0.9 0 -5.6 -3.5 -8.8 -6.5 -0.9 -0.8 -1.9 -1.5 -2.4 -1.5 -0.5 0 -4 -2.1 -7.9 -4.8 -9.9 -6.6 -9.6 -6.4 -24.6 -13.9 -7.4 -3.7 -13.6 -7.1 -13.8 -7.5 -0.2 -0.4 -1 -0.8 -1.8 -0.8 -0.7 0 -2.9 -0.9 -4.9 -2 -2 -1.1 -4.4 -2 -5.5 -2 -1.1 0 -2 -0.4 -2 -1 0 -0.5 -0.7 -1 -1.5 -1 -0.8 0 -2.3 -0.4 -3.3 -1 -0.9 -0.5 -4.4 -1.8 -7.7 -2.9 -5.4 -1.7 -9.1 -2.8 -22 -6.3 -2.2 -0.7 -4.4 -1.5 -5 -2 -0.5 -0.4 -2.8 -0.8 -5.1 -0.8 -2.4 0 -4.6 -0.4 -4.9 -1 -0.3 -0.5 -2.5 -1 -4.9 -1 -2.3 0 -4.6 -0.4 -5.1 -0.9 -1 -0.9 -3.6 -1.3 -24 -3.3 -15.3 -1.5 -40.6 -1.5 -56 0.1 -6.6 0.6 -14.7 1.4 -18 1.7 -3.3 0.3 -6.4 1 -7 1.5 -0.5 0.5 -2.4 0.9 -4.1 0.9 -1.8 0 -3.6 0.4 -3.9 1 -0.3 0.5 -2.2 1 -4.2 1 -3.7 0 -4.7 0.3 -15.9 4 -3.3 1.1 -6.8 2 -7.6 2 -2.7 0 -17.8 5.2 -17.8 6.2 0 0.4 -1.3 0.8 -3 0.8 -1.6 0 -3 0.5 -3 1 0 0.6 -0.9 1 -2 1 -1.1 0 -2 0.5 -2 1 0 0.6 -0.9 1 -2 1 -1.1 0 -2 0.5 -2 1 0 0.6 -1.3 1 -2.9 1 -1.6 0 -3.1 0.3 -3.3 0.8 -0.1 0.4 -2.5 1.8 -5.3 3.1 -2.7 1.4 -5.7 3 -6.5 3.7 -0.8 0.7 -4.2 2.7 -7.5 4.4 -11.4 5.9 -22.5 12.9 -22.5 14.1 0 0.5 -1.6 1.7 -3.5 2.6 -1.9 0.9 -3.5 2 -3.5 2.5 0 0.5 -1.4 1.7 -3.1 2.7 -7.2 4.4 -32.4 28.6 -41.2 39.6 -11.4 14.2 -14.7 18.7 -14.7 20.1 0 0.8 -0.4 1.4 -0.8 1.4 -0.9 0 -6.2 7.7 -6.2 9 0 0.4 -0.7 1.3 -1.5 2 -0.8 0.6 -3.1 4.6 -5.1 8.8 -2.1 4.3 -4.4 8.5 -5.2 9.4 -1.9 2.3 -8.2 14.9 -8.2 16.5 0 0.7 -1.1 3.2 -2.5 5.7 -1.4 2.5 -2.5 5 -2.5 5.6 0 0.6 -0.9 3 -2 5.2 -1.1 2.3 -2 5 -2 5.9 0 1 -0.5 2.1 -1 2.4 -0.6 0.3 -1 1.7 -1 3 0 1.3 -0.5 2.7 -1 3 -0.6 0.3 -1 1.7 -1 3 0 1.3 -0.4 2.7 -1 3 -0.5 0.3 -1 1.7 -1 3 0 1.3 -0.4 2.6 -0.9 2.9 -0.5 0.3 -1.1 2 -1.4 3.8 -0.3 1.8 -1 5.2 -1.6 7.6 -0.6 2.3 -1.5 6 -2.1 8.2 -0.5 2.2 -1.5 5.9 -2.1 8.3 -4.8 19.1 -8.2 48.3 -7.3 62.2 0.7 11.5 2.2 15.3 9.3 23.2 6.6 7.5 10.1 11.9 10.1 13.1 0 0.5 0.7 1.6 1.6 2.3 0.9 0.7 2 2.2 2.5 3.4 0.6 1.1 2.5 4.5 4.4 7.5 1.8 3 4.1 7.1 5 9 0.9 1.9 2.5 5.2 3.6 7.3 1 2.2 1.9 4.7 1.9 5.7 0 1.1 0.5 2.2 1 2.5 0.6 0.3 1 1.7 1 3 0 1.3 0.5 2.7 1 3 0.6 0.3 1 2.1 1 4 0 1.9 0.5 3.7 1 4 0.6 0.3 1 1.7 1 3 0 1.3 0.5 2.7 1 3 0.6 0.3 1 1.5 1 2.6 0 1 0.4 2.7 0.9 3.7 0.5 0.9 1.6 4.9 2.5 8.7 2.6 11.4 7.3 28.6 8.6 32 1 2.4 2 6.7 2.7 11.8 0.3 2 0.9 4 1.4 4.3 0.5 0.3 0.9 1.6 0.9 2.9 0 1.3 0.4 2.6 0.9 2.9 0.5 0.3 1.1 2 1.4 3.8 0.9 5.3 1.8 9.2 2.7 11.3 0.4 1.1 1.3 4 2 6.5 0.6 2.5 1.6 5.9 2.1 7.6 0.5 1.7 0.9 3.8 0.9 4.7 0 1 0.4 2.5 0.9 3.5 0.5 0.9 1.9 5.1 3.1 9.2 3.7 13 11.3 36.5 12.2 37.5 0.4 0.5 0.8 1.7 0.8 2.7 0 0.9 0.9 3.3 2 5.3 1.1 2 2 4.1 2 4.8 0 1.2 11.3 24.1 15.4 31 7 12.1 26.1 33.7 29.8 33.7 1.9 0 2.4 -1.5 0.8 -2.5 -0.5 -0.3 -1 -1.7 -1 -3 0 -1.3 -0.4 -2.7 -1 -3 -0.5 -0.3 -1 -1.6 -1 -2.9 0 -1.2 -0.4 -2.6 -0.8 -3.1 -1.5 -1.7 -5 -14.6 -6.7 -24 -2.2 -13.3 -2.1 -38.5 0.4 -47.3 3.3 -11.8 8.7 -21 16 -27.3 6.3 -5.4 9.8 -7.9 11 -7.9 0.6 0 1.1 -0.4 1.1 -1 0 -0.5 0.9 -1 1.9 -1 1.1 0 2.2 -0.4 2.5 -0.9 0.6 -0.9 3 -1.5 13.1 -3.2 7.5 -1.3 12.2 -1.3 20.5 0 9.9 1.5 13 2.2 13.6 3.2 0.3 0.5 1.3 0.9 2.3 0.9 5 0 26.3 13.2 33 20.4 1.4 1.4 3 2.6 3.6 2.6 0.7 0 1.6 0.8 2.1 1.9 1.7 3.5 62.5 66.1 69.9 72 1.7 1.3 5.3 4.5 8.1 7 6.5 5.8 13.1 11.3 15.3 12.5 0.9 0.5 2.1 1.5 2.6 2.1 0.9 1 15.3 10.9 20.3 14 1 0.6 4.9 3 8.7 5.5 10.8 6.9 10.9 6.9 13 7.9 1.1 0.5 3.7 2.1 5.8 3.5 2.1 1.4 4 2.6 4.4 2.6 0.3 0 3.9 2.2 8 5 4.1 2.7 7.9 5 8.4 5 0.5 0 0.9 0.3 0.9 0.8 0 0.7 2.2 2.1 7.3 4.4 1.5 0.7 2.7 1.6 2.7 1.9 0 0.4 2.4 2.2 5.3 3.9 2.8 1.7 7 4.5 9.2 6.1 2.2 1.6 5.6 4.1 7.5 5.5 7.5 5.3 10.3 7.4 14.1 10.6 2.1 1.8 6.9 5.8 10.5 8.8 18.7 15.4 39 36.9 57.1 60.3 5.1 6.6 17.3 24.8 17.3 25.8 0 0.5 0.5 0.9 1 0.9 0.6 0 1 0.6 1 1.3 0 0.7 1.3 3.1 3 5.3 1.6 2.1 3 4.2 3 4.6 0 0.4 3.8 8.6 8.5 18.1 4.7 9.5 8.5 18.1 8.5 19 0 0.9 0.5 1.7 1 1.7 0.6 0 1 1.4 1 3 0 1.7 0.5 3 1 3 0.6 0 1 0.9 1 2 0 1.1 0.4 2 0.9 2 0.5 0 1.1 1.2 1.4 2.8 0.8 3.9 2.3 9.7 4.6 18.1 4 14.4 8.2 35.6 10.2 52.1 2.4 18.8 3.1 27.4 5.9 73 1.4 23 2.1 30.4 3.1 31.5 0.5 0.5 0.9 2 0.9 3.5 0 4.5 1.9 5.8 8.3 5.9 2 0.1 3.7 -0.3 3.7 -0.9z"/>
  <path d="M1333 892 c-0.8 -0.5 -2.7 -1 -4.2 -1 -1.5 0 -3 -0.4 -3.3 -1 -0.3 -0.5 -1.4 -1 -2.4 -1 -2.6 0 -12 -3.1 -15.9 -5.2 -1.8 -1 -4.1 -1.8 -5.2 -1.8 -1 0 -2.2 -0.4 -2.5 -1 -0.3 -0.5 -1.5 -1 -2.5 -1 -1 0 -2 -0.3 -2.2 -0.8 -0.1 -0.4 -4.3 -2.7 -9.3 -5.2 -4.9 -2.5 -9.1 -4.8 -9.3 -5.2 -0.2 -0.5 -1 -0.8 -1.7 -0.8 -0.7 0 -3.8 -1.3 -6.8 -2.9 -3 -1.6 -7.3 -3.2 -9.6 -3.6 -2.2 -0.4 -4.3 -1.1 -4.7 -1.6 -0.3 -0.5 -1.6 -0.9 -2.9 -0.9 -1.3 0 -2.6 -0.4 -2.9 -0.9 -0.3 -0.5 -2.3 -1.2 -4.3 -1.6 -6.3 -1.3 -37.2 -1 -45.8 0.4 -14.6 2.3 -20.9 2.9 -36 3.6 -15.9 0.7 -37.7 -0.6 -43.5 -2.6 -9.7 -3.3 -23.6 -11.5 -28 -16.5 -4.3 -4.9 -9 -11.2 -9 -12.2 0 -0.5 -0.6 -1.5 -1.4 -2.1 -1.5 -1.3 -6.7 -14.1 -8.5 -21.1 -1.3 -4.8 -1 -31 0.3 -36.5 1.1 -4.1 4.8 -13.7 6.1 -15.5 0.5 -0.8 1.9 -3.1 2.9 -5 1.1 -1.9 4.2 -6.2 7.1 -9.5 2.8 -3.3 6 -7.1 7.1 -8.3 2.6 -3.3 20.1 -18.2 21.2 -18.2 0.5 0 1.6 -0.7 2.3 -1.6 1.5 -1.9 7.3 -5.9 12.8 -8.9 4.6 -2.5 27.8 -18.2 35.1 -23.6 3 -2.3 16.5 -15.2 30 -28.8 13.5 -13.5 26.8 -26.2 29.5 -28.1 2.8 -1.9 5.2 -3.8 5.5 -4.1 1 -1.2 13.5 -6.9 15.2 -6.9 0.9 0 2 -0.4 2.3 -1 0.3 -0.5 1.7 -1 3 -1 1.3 0 2.7 -0.4 3 -1 0.3 -0.6 2.1 -1 4 -1 1.9 0 3.7 -0.4 4 -1 0.4 -0.6 6.5 -1 15 -1 8.5 0 14.6 0.4 15 1 0.3 0.6 2.6 1 5 1 2.4 0 4.7 0.4 5 1 0.3 0.6 1.9 1 3.5 1 1.5 0 4.8 1 7.2 2.1 16.5 8.1 16.7 8.3 28 18.9 7 6.5 10.1 10.3 14.3 16.9 0.6 0.9 1.2 1.8 1.5 2.1 0.3 0.3 1.1 1.6 1.8 3 0.7 1.4 2.1 3.9 3.1 5.5 1.1 1.7 2 4 2 5.3 0.1 1.2 0.5 2.2 0.9 2.2 0.8 0 2.1 2.8 5.6 13 2.8 7.7 10.7 24.4 11.8 24.8 0.4 0.2 0.8 1.2 0.8 2.3 0 1 0.5 1.9 1 1.9 0.6 0 1 0.5 1 1.1 0 0.6 1.3 2.8 3 4.8 1.6 2 5.1 6.2 7.7 9.4 2.7 3.3 7.5 9 10.8 12.7 11.1 12.6 22.5 27.7 22.5 29.9 0 0.5 0.7 1.4 1.5 2.1 1.7 1.4 4.5 6.7 4.5 8.6 0 0.7 0.8 2.8 1.9 4.6 1 1.9 2.1 4.9 2.5 6.8 0.4 1.9 1.2 6 1.8 9 1.4 7 1.4 17 0 24 -0.6 3 -1.4 7.1 -1.8 9 -0.4 1.9 -1.5 4.9 -2.5 6.8 -1.1 1.8 -1.9 3.8 -1.9 4.5 0 1.9 -4.9 11.3 -6.5 12.7 -0.8 0.7 -1.5 1.8 -1.5 2.5 0 0.6 -3.3 4.8 -7.4 9.2 -10.7 11.4 -25.6 21.1 -38.2 24.7 -3.2 0.9 -7.3 2.1 -9 2.7 -4 1.2 -37.5 1.2 -39.4 -0.1z"/>
  <path d="M1441 697.8 c-5 -1 -8.7 -2.5 -11.3 -4.7 -0.9 -0.8 -2.7 -1.9 -3.9 -2.5 -2.9 -1.5 -12.6 -15.5 -12.7 -18.3 -0.1 -1.3 -0.5 -2.3 -1.1 -2.3 -0.5 0 -1 -1.1 -1 -2.4 0 -1.4 -0.4 -2.7 -0.9 -3 -3.3 -2.1 -3.3 -48.1 0 -50.2 0.5 -0.3 0.9 -2 0.9 -3.9 0 -1.9 0.5 -3.7 1 -4 0.6 -0.3 1 -1.5 1 -2.5 0 -1.1 0.9 -3.5 2 -5.5 1.1 -2 2 -4.2 2 -4.9 0 -0.7 1.2 -3.5 2.8 -6.1 5.5 -9.5 7.7 -13.2 9.7 -16 3.2 -4.5 20.8 -22.5 22 -22.5 0.7 0 2 -0.9 3 -2 1 -1.1 2.4 -2 3.2 -2 0.7 0 1.3 -0.4 1.3 -1 0 -0.5 0.7 -1 1.5 -1 0.8 0 3 -0.9 5 -2 4.6 -2.6 16.3 -4.4 23.4 -3.5 7.7 0.9 17.4 5.9 22.5 11.6 4.4 4.8 11.6 18.5 13.4 25.4 2.5 9.1 3.5 23.9 2.3 32.6 -1.6 11.5 -3.1 19.1 -4.2 21.1 -0.5 1 -0.9 2.4 -0.9 3.3 0 0.8 -0.9 3 -2 5 -1.1 2 -2 4.1 -2 4.9 0 2.8 -8.5 17.1 -15.5 26 -7.9 10.1 -11.5 13.5 -20.4 19.1 -0.9 0.6 -3.5 2.3 -5.8 3.8 -2.4 1.5 -4.7 2.7 -5.3 2.7 -0.5 0 -1 0.4 -1 0.9 0 0.9 -1.3 1.3 -12.5 3.6 -7.8 1.7 -10 1.7 -16.5 0.3z"/>
  <path d="M1095 675.1 c-7.1 -2.5 -10.1 -4.6 -15.5 -10.3 -5.9 -6.2 -8.2 -9.5 -11.4 -16.3 -1.3 -2.7 -2.7 -5.8 -3.2 -6.7 -0.5 -1 -0.9 -2.9 -0.9 -4.3 0 -1.4 -0.4 -2.5 -1 -2.5 -0.5 0 -1 -1.5 -1 -3.3 0 -1.8 -0.4 -3.7 -0.9 -4.3 -2.3 -2.4 -3.2 -33.3 -1.3 -44.4 1.9 -11 2.4 -13 3.3 -13 0.5 0 0.9 -0.8 0.9 -1.8 0 -3.4 9.9 -21.2 13.4 -24.1 1 -0.8 2.4 -2.7 3.2 -4.3 0.8 -1.5 2 -2.8 2.8 -2.8 0.7 0 2.1 -0.9 3.1 -2 2.1 -2.3 11.2 -7 13.6 -7 1 0 2.1 -0.4 2.4 -1 0.3 -0.5 3.7 -1 7.6 -1 3.9 0 6.9 0.4 6.9 1 0 0.6 0.9 1 2 1 1.1 0 2 0.5 2 1 0 0.6 0.9 1 2 1 1.1 0 2 0.5 2 1 0 0.6 0.6 1 1.3 1 3 0.1 19.7 18.3 19.7 21.5 0 0.8 0.9 3 2 5 1.1 2 2 4.2 2 5 0 0.9 0.4 2.3 0.9 3.3 2.2 4.3 3.1 9.8 4.1 23.2 1.1 15.1 -0.1 38.5 -2 40.4 -0.6 0.6 -1 2 -1 3.2 0 1.3 -0.4 2.6 -1 2.9 -0.5 0.3 -1 1.5 -1 2.5 0 2.6 -6.6 14.9 -10 18.5 -1.5 1.7 -3.1 3.8 -3.6 4.7 -0.9 1.6 -4.1 4.2 -11.4 9.1 -8.2 5.5 -20.9 7.1 -30 3.8z"/>
  <path d="M1350.5 584 c-1.1 -0.5 -3.1 -0.9 -4.6 -0.9 -2.9 -0.1 -12.2 -4.5 -13.9 -6.6 -0.7 -0.8 -1.8 -1.5 -2.4 -1.5 -2.2 0 -8.5 -8 -12.4 -15.5 -6.4 -12.7 -9 -32 -6.8 -51.5 1.6 -14.9 11.3 -43 16.1 -47 0.8 -0.7 1.5 -1.8 1.5 -2.5 0 -0.6 0.9 -2 2 -3 1.1 -1 2 -2.2 2 -2.7 0 -1.2 3.2 -5.5 8.8 -11.8 6.3 -7.1 24.7 -19 29.3 -19 1 0 2.1 -0.4 2.4 -1 0.4 -0.6 5.5 -1 12 -1 6.5 0 11.6 0.4 12 1 0.3 0.6 1.5 1 2.6 1 6.9 0 22.5 17.7 26.1 29.5 4.5 14.5 5 17.4 5.5 32.5 0.5 14 -0.2 18.9 -5.7 37.4 -2.2 7.4 -9.4 23.1 -11.1 24.2 -0.6 0.3 -1.4 1.4 -1.7 2.5 -1.8 4.8 -22.4 25.3 -27.2 27.1 -1 0.4 -2.1 1.1 -2.4 1.7 -0.9 1.4 -6.6 4.1 -8.7 4.1 -1 0 -2 0.4 -2.3 0.9 -1.1 1.8 -18.1 3.5 -21.1 2.1z"/>
  <path d="M1201.8 581.7 c-2.7 -0.6 -4.8 -1.4 -4.8 -1.9 0 -0.4 -0.6 -0.8 -1.3 -0.8 -0.8 0 -2.4 -0.9 -3.7 -2 -1.3 -1.1 -2.6 -2 -2.9 -2 -2.5 0 -15.1 -14.8 -15.1 -17.7 0 -0.7 -0.3 -1.3 -0.7 -1.3 -1.1 0 -3.3 -5 -3.3 -7.1 0 -1 -0.4 -2.1 -1 -2.4 -0.5 -0.3 -1 -1.7 -1 -3 0 -1.3 -0.4 -2.6 -0.9 -2.9 -3.3 -2.1 -3.3 -51.1 0 -53.2 0.5 -0.3 0.9 -1.6 0.9 -2.9 0 -1.3 0.5 -2.7 1 -3 0.6 -0.3 1 -1.7 1 -3 0 -1.3 0.5 -2.7 1 -3 0.6 -0.3 1 -1.4 1 -2.4 0 -2.3 5.8 -13.6 9.5 -18.6 1.7 -2.2 3.5 -4.6 4 -5.4 1.8 -2.5 14.9 -15.5 18.5 -18.3 1.9 -1.5 4 -2.8 4.7 -2.8 0.6 0 1.3 -0.3 1.5 -0.7 0.5 -1.3 8.8 -5.3 10.8 -5.3 1.1 0 2.2 -0.4 2.5 -1 0.3 -0.5 2.6 -1 5.1 -1 2.5 0 5.5 -0.5 6.6 -1.1 1.4 -0.8 2.3 -0.8 3.1 0 0.6 0.6 3 1.1 5.3 1.1 2.4 0 4.6 0.5 4.9 1 0.3 0.6 1.4 1 2.4 1 2.5 0 13.1 8 16.9 12.9 4.1 5.1 9.2 14.7 9.2 17.1 0 1.1 0.5 2.2 1 2.5 0.6 0.3 1 2.1 1 3.9 0 1.7 0.4 3.6 0.9 4.1 2.7 2.8 2.7 40.2 0 43 -0.5 0.5 -0.9 2.4 -0.9 4.1 0 1.8 -0.4 3.6 -1 3.9 -0.5 0.3 -1 1.7 -1 3 0 1.3 -0.4 2.7 -1 3 -0.5 0.3 -1 1.7 -1 3 0 1.3 -0.4 2.7 -1 3 -0.5 0.3 -1 1.4 -1 2.5 0 2 -5.3 12.6 -7.6 15.1 -0.8 0.8 -1.4 2 -1.4 2.6 0 3.8 -26.1 29.3 -30.1 29.3 -0.5 0 -0.9 0.5 -0.9 1 0 0.6 -0.9 1 -2 1 -1.1 0 -2 0.5 -2 1 0 0.6 -0.9 1 -2 1 -1.1 0 -2 0.3 -2 0.8 0 1.1 -9.9 3.2 -14.5 3.1 -2.2 -0.1 -6.1 -0.6 -8.7 -1.2z"/>
 </g>
</svg>
